Input #0, lavfi, from 'rgbtestsrc=duration=60:size=1920x1080:rate=30':
  Duration: N/A, start: 0.000000, bitrate: N/A
  Stream #0:0: Video: rawvideo (RGBA / 0x41424752), rgba, 1920x1080 [SAR 1:1 DAR 16:9], 30 tbr, 30 tbn, 30 tbc
Stream mapping:
  Stream #0:0 -> #0:0 (rawvideo (native) -> h264 (h264_nvenc))
Press [q] to stop, [?] for help
Output #0, mp4, to './test_results/temp_tests_gpu/test_test_50_7/output.mp4':
  Metadata:
    encoder         : Lavf58.76.100
  Stream #0:0: Video: h264 (Main) (avc1 / 0x31637661), rgb0(pc, gbr/unknown/unknown, progressive), 1280x720 [SAR 1:1 DAR 16:9], q=2-31, 30 fps, 15360 tbn
    Metadata:
      encoder         : Lavc58.134.100 h264_nvenc
    Side data:
      cpb: bitrate max/min/avg: 3000000/0/0 buffer size: 4000000 vbv_delay: N/A
frame=    1 fps=0.0 q=0.0 size=       0kB time=00:00:00.00 bitrate=N/A speed=N/A    frame=    2 fps=0.8 q=0.0 size=       0kB time=00:00:00.00 bitrate=N/A speed=   0x    frame=   17 fps=5.5 q=23.0 size=       0kB time=00:00:00.46 bitrate=   0.8kbits/s speed=0.152x    frame=   36 fps= 10 q=23.0 size=       0kB time=00:00:01.10 bitrate=   0.3kbits/s speed=0.308x    frame=   55 fps= 14 q=23.0 size=       0kB time=00:00:01.73 bitrate=   0.2kbits/s speed=0.426x    frame=   74 fps= 16 q=23.0 size=       0kB time=00:00:02.36 bitrate=   0.2kbits/s speed=0.517x    frame=   94 fps= 18 q=23.0 size=       0kB time=00:00:03.03 bitrate=   0.1kbits/s speed=0.595x    frame=  114 fps= 20 q=23.0 size=       0kB time=00:00:03.70 bitrate=   0.1kbits/s speed=0.658x    frame=  132 fps= 22 q=23.0 size=       0kB time=00:00:04.30 bitrate=   0.1kbits/s speed=0.702x    frame=  149 fps= 22 q=23.0 size=       0kB time=00:00:04.86 bitrate=   0.1kbits/s speed=0.731x    frame=  166 fps= 23 q=23.0 size=       0kB time=00:00:05.43 bitrate=   0.1kbits/s speed=0.757x    frame=  181 fps= 24 q=23.0 size=       0kB time=00:00:05.93 bitrate=   0.1kbits/s speed=0.773x    frame=  196 fps= 24 q=23.0 size=       0kB time=00:00:06.43 bitrate=   0.1kbits/s speed=0.784x    frame=  212 fps= 24 q=23.0 size=       0kB time=00:00:06.96 bitrate=   0.1kbits/s speed= 0.8x    frame=  227 fps= 25 q=23.0 size=       0kB time=00:00:07.46 bitrate=   0.1kbits/s speed=0.807x    frame=  240 fps= 25 q=23.0 size=       0kB time=00:00:07.90 bitrate=   0.0kbits/s speed=0.808x    frame=  254 fps= 25 q=23.0 size=       0kB time=00:00:08.36 bitrate=   0.0kbits/s speed=0.813x    frame=  269 fps= 25 q=23.0 size=       0kB time=00:00:08.86 bitrate=   0.0kbits/s speed=0.821x    frame=  283 fps= 25 q=23.0 size=       0kB time=00:00:09.33 bitrate=   0.0kbits/s speed=0.825x    frame=  296 fps= 25 q=23.0 size=       0kB time=00:00:09.76 bitrate=   0.0kbits/s speed=0.823x    frame=  309 fps= 25 q=23.0 size=       0kB time=00:00:10.20 bitrate=   0.0kbits/s speed=0.824x    frame=  323 fps= 25 q=23.0 size=       0kB time=00:00:10.66 bitrate=   0.0kbits/s speed=0.827x    frame=  336 fps= 25 q=23.0 size=       0kB time=00:00:11.10 bitrate=   0.0kbits/s speed=0.827x    frame=  349 fps= 25 q=23.0 size=       0kB time=00:00:11.53 bitrate=   0.0kbits/s speed=0.826x    frame=  363 fps= 25 q=19.0 size=       0kB time=00:00:12.00 bitrate=   0.0kbits/s speed=0.83x    frame=  379 fps= 25 q=23.0 size=       0kB time=00:00:12.53 bitrate=   0.0kbits/s speed=0.836x    frame=  394 fps= 25 q=23.0 size=       0kB time=00:00:13.03 bitrate=   0.0kbits/s speed=0.841x    frame=  411 fps= 26 q=23.0 size=       0kB time=00:00:13.60 bitrate=   0.0kbits/s speed=0.849x    frame=  427 fps= 26 q=23.0 size=       0kB time=00:00:14.13 bitrate=   0.0kbits/s speed=0.856x    frame=  444 fps= 26 q=23.0 size=       0kB time=00:00:14.70 bitrate=   0.0kbits/s speed=0.864x    frame=  460 fps= 26 q=23.0 size=       0kB time=00:00:15.23 bitrate=   0.0kbits/s speed=0.869x    frame=  477 fps= 26 q=23.0 size=       0kB time=00:00:15.80 bitrate=   0.0kbits/s speed=0.876x    frame=  493 fps= 27 q=23.0 size=       0kB time=00:00:16.33 bitrate=   0.0kbits/s speed=0.88x    frame=  509 fps= 27 q=23.0 size=       0kB time=00:00:16.86 bitrate=   0.0kbits/s speed=0.885x    frame=  525 fps= 27 q=23.0 size=       0kB time=00:00:17.40 bitrate=   0.0kbits/s speed=0.888x    frame=  542 fps= 27 q=23.0 size=       0kB time=00:00:17.96 bitrate=   0.0kbits/s speed=0.893x    frame=  557 fps= 27 q=23.0 size=       0kB time=00:00:18.46 bitrate=   0.0kbits/s speed=0.895x    frame=  571 fps= 27 q=23.0 size=       0kB time=00:00:18.93 bitrate=   0.0kbits/s speed=0.895x    frame=  583 fps= 27 q=23.0 size=       0kB time=00:00:19.33 bitrate=   0.0kbits/s speed=0.892x    frame=  596 fps= 27 q=23.0 size=       0kB time=00:00:19.76 bitrate=   0.0kbits/s speed=0.89x    frame=  609 fps= 27 q=23.0 size=       0kB time=00:00:20.20 bitrate=   0.0kbits/s speed=0.89x    frame=  623 fps= 27 q=23.0 size=       0kB time=00:00:20.66 bitrate=   0.0kbits/s speed=0.89x    frame=  637 fps= 27 q=23.0 size=       0kB time=00:00:21.13 bitrate=   0.0kbits/s speed=0.889x    frame=  652 fps= 27 q=23.0 size=       0kB time=00:00:21.63 bitrate=   0.0kbits/s speed=0.891x    frame=  667 fps= 27 q=23.0 size=       0kB time=00:00:22.13 bitrate=   0.0kbits/s speed=0.893x    frame=  682 fps= 27 q=23.0 size=       0kB time=00:00:22.63 bitrate=   0.0kbits/s speed=0.895x    frame=  698 fps= 27 q=23.0 size=       0kB time=00:00:23.16 bitrate=   0.0kbits/s speed=0.897x    frame=  714 fps= 27 q=23.0 size=       0kB time=00:00:23.70 bitrate=   0.0kbits/s speed= 0.9x    frame=  731 fps= 27 q=23.0 size=       0kB time=00:00:24.26 bitrate=   0.0kbits/s speed=0.904x    frame=  749 fps= 27 q=23.0 size=       0kB time=00:00:24.86 bitrate=   0.0kbits/s speed=0.909x    frame=  768 fps= 28 q=23.0 size=       0kB time=00:00:25.50 bitrate=   0.0kbits/s speed=0.916x    frame=  786 fps= 28 q=23.0 size=       0kB time=00:00:26.10 bitrate=   0.0kbits/s speed=0.921x    frame=  805 fps= 28 q=23.0 size=       0kB time=00:00:26.73 bitrate=   0.0kbits/s speed=0.927x    frame=  824 fps= 28 q=23.0 size=       0kB time=00:00:27.36 bitrate=   0.0kbits/s speed=0.932x    frame=  844 fps= 28 q=23.0 size=       0kB time=00:00:28.03 bitrate=   0.0kbits/s speed=0.938x    frame=  864 fps= 28 q=23.0 size=       0kB time=00:00:28.70 bitrate=   0.0kbits/s speed=0.944x    frame=  884 fps= 29 q=23.0 size=       0kB time=00:00:29.36 bitrate=   0.0kbits/s speed=0.95x    frame=  904 fps= 29 q=23.0 size=       0kB time=00:00:30.03 bitrate=   0.0kbits/s speed=0.955x    frame=  923 fps= 29 q=23.0 size=       0kB time=00:00:30.66 bitrate=   0.0kbits/s speed=0.96x    frame=  942 fps= 29 q=23.0 size=       0kB time=00:00:31.30 bitrate=   0.0kbits/s speed=0.964x    frame=  961 fps= 29 q=23.0 size=       0kB time=00:00:31.93 bitrate=   0.0kbits/s speed=0.968x    frame=  979 fps= 29 q=23.0 size=       0kB time=00:00:32.53 bitrate=   0.0kbits/s speed=0.971x    frame=  997 fps= 29 q=23.0 size=       0kB time=00:00:33.13 bitrate=   0.0kbits/s speed=0.974x    frame= 1016 fps= 29 q=23.0 size=       0kB time=00:00:33.76 bitrate=   0.0kbits/s speed=0.978x    frame= 1035 fps= 30 q=23.0 size=       0kB time=00:00:34.40 bitrate=   0.0kbits/s speed=0.982x    frame= 1054 fps= 30 q=23.0 size=       0kB time=00:00:35.03 bitrate=   0.0kbits/s speed=0.986x    frame= 1073 fps= 30 q=23.0 size=       0kB time=00:00:35.66 bitrate=   0.0kbits/s speed=0.99x    frame= 1091 fps= 30 q=23.0 size=       0kB time=00:00:36.26 bitrate=   0.0kbits/s speed=0.992x    frame= 1110 fps= 30 q=23.0 size=       0kB time=00:00:36.90 bitrate=   0.0kbits/s speed=0.995x    frame= 1129 fps= 30 q=23.0 size=       0kB time=00:00:37.53 bitrate=   0.0kbits/s speed=0.998x    frame= 1148 fps= 30 q=23.0 size=       0kB time=00:00:38.16 bitrate=   0.0kbits/s speed=   1x    frame= 1166 fps= 30 q=23.0 size=       0kB time=00:00:38.76 bitrate=   0.0kbits/s speed=   1x    frame= 1184 fps= 30 q=23.0 size=       0kB time=00:00:39.36 bitrate=   0.0kbits/s speed=1.01x    frame= 1203 fps= 30 q=19.0 size=       0kB time=00:00:40.00 bitrate=   0.0kbits/s speed=1.01x    frame= 1222 fps= 30 q=23.0 size=       0kB time=00:00:40.63 bitrate=   0.0kbits/s speed=1.01x    frame= 1241 fps= 30 q=23.0 size=       0kB time=00:00:41.26 bitrate=   0.0kbits/s speed=1.01x    frame= 1260 fps= 31 q=23.0 size=       0kB time=00:00:41.90 bitrate=   0.0kbits/s speed=1.02x    frame= 1279 fps= 31 q=23.0 size=       0kB time=00:00:42.53 bitrate=   0.0kbits/s speed=1.02x    frame= 1297 fps= 31 q=23.0 size=       0kB time=00:00:43.13 bitrate=   0.0kbits/s speed=1.02x    frame= 1316 fps= 31 q=23.0 size=       0kB time=00:00:43.76 bitrate=   0.0kbits/s speed=1.02x    frame= 1335 fps= 31 q=23.0 size=       0kB time=00:00:44.40 bitrate=   0.0kbits/s speed=1.03x    frame= 1354 fps= 31 q=23.0 size=       0kB time=00:00:45.03 bitrate=   0.0kbits/s speed=1.03x    frame= 1372 fps= 31 q=23.0 size=       0kB time=00:00:45.63 bitrate=   0.0kbits/s speed=1.03x    frame= 1390 fps= 31 q=23.0 size=       0kB time=00:00:46.23 bitrate=   0.0kbits/s speed=1.03x    frame= 1409 fps= 31 q=23.0 size=       0kB time=00:00:46.86 bitrate=   0.0kbits/s speed=1.03x    frame= 1428 fps= 31 q=23.0 size=       0kB time=00:00:47.50 bitrate=   0.0kbits/s speed=1.04x    frame= 1447 fps= 31 q=23.0 size=       0kB time=00:00:48.13 bitrate=   0.0kbits/s speed=1.04x    frame= 1466 fps= 31 q=23.0 size=       0kB time=00:00:48.76 bitrate=   0.0kbits/s speed=1.04x    frame= 1484 fps= 31 q=23.0 size=       0kB time=00:00:49.36 bitrate=   0.0kbits/s speed=1.04x    frame= 1499 fps= 31 q=23.0 size=       0kB time=00:00:49.86 bitrate=   0.0kbits/s speed=1.04x    frame= 1517 fps= 31 q=23.0 size=       0kB time=00:00:50.46 bitrate=   0.0kbits/s speed=1.04x    frame= 1536 fps= 31 q=23.0 size=       0kB time=00:00:51.10 bitrate=   0.0kbits/s speed=1.04x    frame= 1554 fps= 31 q=23.0 size=       0kB time=00:00:51.70 bitrate=   0.0kbits/s speed=1.04x    frame= 1572 fps= 31 q=23.0 size=       0kB time=00:00:52.30 bitrate=   0.0kbits/s speed=1.05x    frame= 1590 fps= 31 q=23.0 size=       0kB time=00:00:52.90 bitrate=   0.0kbits/s speed=1.05x    frame= 1608 fps= 32 q=23.0 size=       0kB time=00:00:53.50 bitrate=   0.0kbits/s speed=1.05x    frame= 1626 fps= 32 q=23.0 size=       0kB time=00:00:54.10 bitrate=   0.0kbits/s speed=1.05x    frame= 1644 fps= 32 q=23.0 size=       0kB time=00:00:54.70 bitrate=   0.0kbits/s speed=1.05x    frame= 1662 fps= 32 q=23.0 size=       0kB time=00:00:55.30 bitrate=   0.0kbits/s speed=1.05x    frame= 1680 fps= 32 q=23.0 size=       0kB time=00:00:55.90 bitrate=   0.0kbits/s speed=1.05x    frame= 1698 fps= 32 q=23.0 size=       0kB time=00:00:56.50 bitrate=   0.0kbits/s speed=1.05x    frame= 1717 fps= 32 q=23.0 size=       0kB time=00:00:57.13 bitrate=   0.0kbits/s speed=1.06x    frame= 1736 fps= 32 q=23.0 size=       0kB time=00:00:57.76 bitrate=   0.0kbits/s speed=1.06x    frame= 1755 fps= 32 q=23.0 size=       0kB time=00:00:58.40 bitrate=   0.0kbits/s speed=1.06x    frame= 1773 fps= 32 q=23.0 size=       0kB time=00:00:59.00 bitrate=   0.0kbits/s speed=1.06x    frame= 1791 fps= 32 q=23.0 size=       0kB time=00:00:59.60 bitrate=   0.0kbits/s speed=1.06x    [mp4 @ 0x650deee4e400] Starting second pass: moving the moov atom to the beginning of the file
frame= 1800 fps= 32 q=23.0 Lsize=     159kB time=00:00:59.96 bitrate=  21.7kbits/s speed=1.06x    
video:151kB audio:0kB subtitle:0kB other streams:0kB global headers:0kB muxing overhead: 5.300566%
